<?xml version="1.0" standalone="no"?><!DOCTYPE svg PUBLIC "-//W3C//DTD SVG 1.1//EN" "http://www.w3.org/Graphics/SVG/1.1/DTD/svg11.dtd"><svg t="1593703258123" class="icon" viewBox="0 0 1024 1024" version="1.1" xmlns="http://www.w3.org/2000/svg" p-id="17313" xmlns:xlink="http://www.w3.org/1999/xlink" width="32" height="32"><defs><style type="text/css"></style></defs><path d="M410.2 430.6h-4.8v91.6h4.8c24 0 41-11 41-46.4s-17-45.2-41-45.2zM282.6 430.4H268v43h15.6c17.4 0 25.8-8.2 25.8-22.8 0-15-9.6-20.2-26.8-20.2z" fill="#FF6969" p-id="17314"></path><path d="M791.94 155.36H332.48c-42.23 0-76.54 34.31-76.54 76.54v76.55h-51.03c-28.16 0-51.04 22.87-51.04 51.03v261.37c0 28.15 22.88 51.02 51.04 51.02h51.03v121.54c0 42.24 34.32 76.55 76.54 76.55h459.46c42.23 0 76.54-34.32 76.54-76.54V231.9c0.1-42.24-34.31-76.54-76.54-76.54zM268 501.6V551h-35.8V402.2h52.2c32.8 0 59.8 11.6 59.8 48.4 0 35.4-27.4 51-58.8 51H268z m549.45 291.9c-0.02 14.09-11.43 25.5-25.52 25.51H332.48c-14.09-0.01-25.5-11.43-25.51-25.51V671.96h306.21c28.15 0 51.03-22.88 51.03-51.03v-6.03h76.69c14.09-0.01 25.51-11.43 25.52-25.52-0.02-14.09-11.43-25.5-25.52-25.51h-76.69v-51.03h76.69c14.09-0.01 25.51-11.43 25.52-25.52-0.01-14.09-11.43-25.5-25.52-25.52h-76.69v-51.03h76.69c14.09-0.01 25.51-11.43 25.52-25.51-0.01-14.09-11.43-25.51-25.52-25.52h-76.69c0-28.16-22.89-51.03-51.03-51.03H306.97v-76.54c0.01-14.09 11.43-25.5 25.51-25.52h459.46c14.08 0.01 25.5 11.43 25.51 25.52V793.5zM369.6 551V402.2h42.8c45.4 0 75.4 21.8 75.4 73.6s-30 75.2-73.4 75.2h-44.8zM602 464.4v29.8h-50.8V551h-35.8V402.2h95v29.6h-59.2v32.6H602z" fill="#FF6969" p-id="17315"></path></svg>