<?xml version="1.0" standalone="no"?><!DOCTYPE svg PUBLIC "-//W3C//DTD SVG 1.1//EN" "http://www.w3.org/Graphics/SVG/1.1/DTD/svg11.dtd"><svg t="1593701642773" class="icon" viewBox="0 0 1024 1024" version="1.1" xmlns="http://www.w3.org/2000/svg" p-id="22173" width="16" height="16" xmlns:xlink="http://www.w3.org/1999/xlink"><defs><style type="text/css"></style></defs><path d="M206.7 705.9v145.6c0 49.8 40.4 90.2 90.2 90.2h375.3V612.4c0-31.1 25.4-56.5 56.5-56.5s56.5 25.4 56.5 56.5v329.3h35.1c49.8 0 90.2-40.4 90.2-90.2V552.1c47.1 0 69.4-58 34.5-89.6L615.5 164.2c-32.3-29.2-81.5-29.2-113.8 0L172.2 462.5c-34.9 31.6-12.5 89.6 34.5 89.6v58.2" fill="#FF7801" p-id="22174"></path><path d="M750.9 957.4h-55.1V608.1c0-20.1-16.4-36.5-36.5-36.5s-36.5 16.4-36.5 36.5v349.3H227.6c-60.8 0-110.2-49.4-110.2-110.2V701.6c0-11 9-20 20-20s20 9 20 20v145.6c0 38.7 31.5 70.2 70.2 70.2h355.3V608.1c0-42.2 34.3-76.5 76.5-76.5s76.5 34.3 76.5 76.5v309.3H751c38.7 0 70.2-31.5 70.2-70.2V527.9h20c20 0 27.5-15.4 29.3-20.1 1.8-4.7 6.6-21.2-8.2-34.6L532.7 174.8a64.717 64.717 0 0 0-87 0L116.3 473.1c-14.8 13.4-10.1 29.9-8.2 34.6 1.8 4.7 9.3 20.1 29.3 20.1h20V606c0 11-9 20-20 20s-20-9-20-20v-41c-21.1-6-38.4-21.6-46.7-42.9-10.7-27.8-3.4-58.7 18.7-78.7l329.5-298.3c19.3-17.5 44.3-27.1 70.3-27.1s51 9.6 70.3 27.1L889 443.4c22.1 20 29.4 50.9 18.7 78.7-8.2 21.3-25.6 36.9-46.7 42.9v282.2c0.1 60.8-49.3 110.2-110.1 110.2z" fill="" p-id="22175"></path><path d="M284 703.9c-11 0-20-9-20-20V569.7c0-11 9-20 20-20s20 9 20 20v114.2c0 11-8.9 20-20 20z" fill="#FBFFFD" p-id="22176"></path><path d="M261.2 731.8a22.8 21.1 0 1 0 45.6 0 22.8 21.1 0 1 0-45.6 0Z" fill="#FBFFFD" p-id="22177"></path><path d="M171.4 198.2m-27.2 0a27.2 27.2 0 1 0 54.4 0 27.2 27.2 0 1 0-54.4 0Z" fill="#FF7801" p-id="22178"></path><path d="M230.2 151m-17.7 0a17.7 17.7 0 1 0 35.4 0 17.7 17.7 0 1 0-35.4 0Z" fill="#FF7801" p-id="22179"></path><path d="M938.5 210.2H834.9c-11 0-20-9-20-20s9-20 20-20h103.7c11 0 20 9 20 20s-9 20-20.1 20z" fill="#FF7801" p-id="22180"></path><path d="M887.1 264.8c-11 0-20-9-20-20V138c0-11 9-20 20-20s20 9 20 20v106.8c0 11.1-9 20-20 20z" fill="#FF7801" p-id="22181"></path></svg>