<?xml version="1.0" standalone="no"?><!DOCTYPE svg PUBLIC "-//W3C//DTD SVG 1.1//EN" "http://www.w3.org/Graphics/SVG/1.1/DTD/svg11.dtd"><svg t="1593702510040" class="icon" viewBox="0 0 1024 1024" version="1.1" xmlns="http://www.w3.org/2000/svg" p-id="9054" width="16" height="16" xmlns:xlink="http://www.w3.org/1999/xlink"><defs><style type="text/css"></style></defs><path d="M716.8 76.8a230.4 230.4 0 0 1 230.4 230.4v409.6a230.4 230.4 0 0 1-230.4 230.4H307.2a230.4 230.4 0 0 1-230.4-230.4V307.2a230.4 230.4 0 0 1 230.4-230.4h409.6m0-76.8H307.2A307.2 307.2 0 0 0 0 307.2v409.6a307.2 307.2 0 0 0 307.2 307.2h409.6a307.2 307.2 0 0 0 307.2-307.2V307.2A307.2 307.2 0 0 0 716.8 0z" p-id="9055" fill="#e16531"></path><path d="M335.616 322.048a489.728 489.728 0 0 1-48.384 68.352L232.96 355.328a366.848 366.848 0 0 0 78.08-128l61.44 13.568-9.728 25.6H512v55.808h-76.8a300.288 300.288 0 0 1 29.44 48.64l-56.32 21.504a535.296 535.296 0 0 0-39.424-70.144z m-61.952 143.36h63.744v332.8h-63.744z m79.104-97.792a628.48 628.48 0 0 1 73.728 76.8l-47.104 32.512A768 768 0 0 0 307.2 396.544z m45.056 122.368h235.264v241.92h-235.264z m60.672 94.464h114.944v-43.008h-114.944z m114.944 94.72V634.88h-114.944v44.288zM636.672 793.6l-15.36-57.856 54.016 2.048c12.8 0 19.2-8.96 19.2-25.6v-261.12h-223.744v-58.368H757.76V729.6c0 43.264-23.296 65.024-70.144 65.024z m-39.168-471.552a491.008 491.008 0 0 1-37.632 59.648l-54.016-35.072a338.432 338.432 0 0 0 63.232-119.808l60.928 13.568c-4.096 11.52-6.912 20.224-8.704 25.6h169.728v55.808h-88.064a332.8 332.8 0 0 1 27.136 43.776l-56.576 21.504a533.504 533.504 0 0 0-37.376-65.28z" p-id="9056" fill="#e16531"></path></svg>