<?xml version="1.0" standalone="no"?><!DOCTYPE svg PUBLIC "-//W3C//DTD SVG 1.1//EN" "http://www.w3.org/Graphics/SVG/1.1/DTD/svg11.dtd"><svg t="1593702422293" class="icon" viewBox="0 0 1024 1024" version="1.1" xmlns="http://www.w3.org/2000/svg" p-id="3147" xmlns:xlink="http://www.w3.org/1999/xlink" width="16" height="16"><defs><style type="text/css"></style></defs><path d="M596 406.2H434.3c2.7-3.5 4-5.2 4.7-6 6.8-6.5 9.2-16.4 6.3-25.3-2.1-6.2-6.4-11.2-12.2-14.1-5.8-2.9-12.4-3.4-18.6-1.3-7.6 2.5-10.9 6.8-18.9 17.1-3.6 4.7-8.5 11.2-14.5 19.3-3.2 4.3-6.4 8.6-9.3 12.5l-1.2 1.6c-5.1 6.9-9.1 12.3-9.9 13.4l-0.1 0.1c-7.8 10.7-5.6 25.8 4.9 33.8l53.4 40.4c4.3 3.2 9.3 4.9 14.7 4.9 7.7 0 14.8-3.5 19.4-9.7 8.1-10.7 6-26-4.7-34.1l-5.4-4H596c45.1 0 81.7 36.7 81.7 81.7S641 618.2 596 618.2H383.3v0.7c-10.7 2.6-18.6 12.2-18.6 23.6 0 11.4 8 21.1 18.6 23.6v0.7H596c71.9 0 130.4-58.5 130.4-130.3 0-71.8-58.5-130.3-130.4-130.3z" fill="#FF4E7D" p-id="3148"></path><path d="M925.6 438c-8.3-45.9-24.2-89.9-47.3-130.6-22.5-39.8-51.1-75.5-85.2-106.2-34.5-31.1-73.5-56-115.9-74.2-43.2-18.5-88.9-29.5-136-32.8-42.7-2.9-85.3 0.6-126.6 10.5-38.2 9.1-74.9 23.6-109.1 43-33.4 19-64.1 42.5-91.3 69.8-27.3 27.5-50.7 58.6-69.4 92.3-19 34.3-33.1 70.9-41.9 109-9.6 41.7-12.8 84.5-9.4 127.4 3.1 39.7 11.9 78.7 26 115.9 13.8 36.3 32.6 70.6 56 101.8 23 30.8 50.1 58.3 80.5 81.8 30.7 23.7 64.4 43 100.3 57.4 37 14.9 75.9 24.3 115.7 28.1 13.4 1.3 26.9 1.9 40.4 1.9 10.7 0 21.3-0.4 31.9-1.2 47-3.5 92.7-14.9 135.9-33.8 42.4-18.5 81.3-43.9 115.6-75.3 33.9-31 62.3-67.1 84.5-107.2 22.9-41.4 38.4-85.9 46.3-132.4 8.1-48.1 7.8-97.1-1-145.2zM282.8 818.8c-65-49.1-113.6-118.4-136.7-195.2-25.3-83.9-20.9-174.6 12.4-255.4 28.9-70.3 80.1-132.1 143.9-174.2 74.8-49.2 164.8-70.8 253.5-60.7 80.3 9.1 157.2 44.5 216.6 99.7 59.1 54.9 100 128.6 115.2 207.3 13.9 72.4 6.4 149.5-21.3 217.3-25.6 62.7-67.7 117.7-121.7 159.1-54.9 42.1-120.1 68.4-188.6 76.2-17.7 2-35.9 2.8-54 2.4-78.6-1.8-156.5-29.1-219.3-76.5z" fill="#4E30DC" p-id="3149"></path><path d="M512.4 938.8c-13.6 0-27.4-0.7-40.9-1.9-40.3-3.9-79.7-13.4-117.2-28.5-36.3-14.6-70.5-34.1-101.6-58.2-30.8-23.8-58.2-51.7-81.5-82.9-23.6-31.7-42.7-66.4-56.7-103.2-14.3-37.6-23.2-77.1-26.3-117.4-3.4-43.5-0.2-86.9 9.5-129.1 8.9-38.6 23.2-75.7 42.5-110.5 19-34.2 42.7-65.7 70.3-93.5 27.5-27.7 58.6-51.5 92.5-70.7 34.7-19.7 71.9-34.4 110.5-43.6 41.9-10 85-13.6 128.3-10.6 47.7 3.3 94 14.4 137.8 33.2 43 18.4 82.5 43.7 117.4 75.2 34.5 31.1 63.5 67.3 86.3 107.5 23.3 41.3 39.4 85.8 47.9 132.3 8.9 48.8 9.2 98.4 0.9 147.3-8 47.1-23.7 92.2-46.9 134.1-22.5 40.6-51.3 77.2-85.6 108.6-34.8 31.8-74.2 57.5-117.1 76.3-43.7 19.1-90 30.6-137.6 34.2-10.9 1-21.7 1.4-32.5 1.4z m-0.2-840.1c-32.5 0-64.7 3.8-96.2 11.3-37.7 9-73.9 23.3-107.7 42.5-33 18.7-63.3 41.9-90.1 68.9-26.9 27.2-50 57.8-68.5 91.1-18.8 33.8-32.7 70-41.4 107.6-9.5 41.1-12.6 83.4-9.3 125.8 3.1 39.2 11.7 77.7 25.6 114.4 13.6 35.8 32.2 69.6 55.3 100.5 22.7 30.4 49.4 57.6 79.4 80.7 30.3 23.4 63.6 42.5 98.9 56.7 36.5 14.7 74.9 24 114.2 27.7 13.2 1.3 26.6 1.9 39.9 1.9 10.5 0 21.1-0.4 31.5-1.2 46.4-3.5 91.5-14.7 134.1-33.3C719.8 875 758.1 850 792 819c33.5-30.6 61.5-66.3 83.4-105.8 22.6-40.8 37.9-84.8 45.7-130.6 8-47.7 7.7-96-0.9-143.5-8.2-45.3-23.9-88.7-46.6-128.9-22.2-39.3-50.5-74.5-84.1-104.8-34-30.7-72.5-55.3-114.4-73.2-42.6-18.3-87.8-29.1-134.2-32.3-9.5-0.9-19.1-1.2-28.7-1.2z m0 802.4c-3.4 0-6.8 0-10.1-0.1-79.8-2.1-158.9-29.7-222.6-77.8-66-49.8-115.2-120.1-138.6-198-25.6-85.1-21.2-177.1 12.6-259 29.4-71.3 81.2-134 146-176.7 75.8-49.9 167.2-71.8 257.2-61.6 81.4 9.2 159.4 45.2 219.7 101.2 60 55.7 101.5 130.4 116.9 210.3 14.1 73.4 6.5 151.7-21.6 220.4-26 63.6-68.7 119.4-123.4 161.4-55.6 42.7-121.8 69.4-191.3 77.3-14.9 1.8-29.8 2.6-44.8 2.6z m0.9-764.7c-73.4 0-145.8 21.5-207.6 62.2-63 41.4-113.3 102.4-141.9 171.7-32.8 79.6-37.1 168.9-12.2 251.7 22.8 75.7 70.6 144 134.7 192.4C348 861.1 424.8 888 502.4 890c17.8 0.5 35.7-0.3 53.2-2.3 67.5-7.7 131.8-33.7 185.8-75.1 53.2-40.8 94.7-95 119.9-156.8 27.3-66.8 34.8-142.9 21-214.2-15-77.6-55.3-150.2-113.6-204.3-58.6-54.4-134.4-89.3-213.5-98.3-13.9-1.8-28-2.6-42.1-2.6z" fill="#4E30DC" p-id="3150"></path></svg>